<!DOCTYPE svg PUBLIC "-//W3C//DTD SVG 1.1//EN" "http://www.w3.org/Graphics/SVG/1.1/DTD/svg11.dtd">
<!-- Uploaded to: SVG Repo, www.svgrepo.com, Transformed by: SVG Repo Mixer Tools -->
<svg fill="#ffffff" height="64px" width="64px" version="1.1" id="Layer_1" xmlns="http://www.w3.org/2000/svg" xmlns:xlink="http://www.w3.org/1999/xlink" viewBox="0 0 512.002 512.002" xml:space="preserve" stroke="#ffffff">
<g id="SVGRepo_bgCarrier" stroke-width="0"/>
<g id="SVGRepo_tracerCarrier" stroke-linecap="round" stroke-linejoin="round"/>
<g id="SVGRepo_iconCarrier"> <g> <g> <g> <path d="M210.833,232.902c-3.337-3.337-8.73-3.337-12.066,0c-3.337,3.337-3.337,8.73,0,12.066l28.1,28.1l-2.5,2.5 c-3.337,3.336-3.337,8.73,0,12.066c1.664,1.664,3.849,2.5,6.033,2.5c2.185,0,4.369-0.836,6.033-2.5l2.5-2.5l28.1,28.1 c1.664,1.664,3.849,2.5,6.033,2.5c2.185,0,4.369-0.836,6.033-2.5c3.337-3.337,3.337-8.73,0-12.066L210.833,232.902z"/> <path d="M176.7,258.502c-3.934-3.934-9.105-6.101-14.566-6.101c-5.461,0-10.633,2.167-14.566,6.101l-25.6,25.6 c-8.713,8.713-8.713,20.42,0,29.133l32.367,32.367l-61.329,61.32c-6.451-6.443-17.698-6.443-24.132,0L5.001,470.795 C1.775,474.02,0,478.304,0,482.869c0,4.557,1.775,8.841,5.001,12.066l12.066,12.066c3.226,3.226,7.509,5,12.066,5 c4.565,0,8.849-1.775,12.066-5l63.872-63.872c3.226-3.217,5.001-7.509,5.001-12.066c0-4.565-1.775-8.849-5.001-12.066 l61.329-61.329l32.367,32.367c5.538,5.538,10.982,6.699,14.566,6.699c3.584,0,9.028-1.161,14.566-6.699l25.6-25.6 c9.25-9.259,9.25-19.883,0-29.133L176.7,258.502z M29.133,494.935h0.009l-0.009,8.533V494.935l-12.066-12.066l63.872-63.872 l12.066,12.066L29.133,494.935z M241.434,352.369l-25.6,25.6c-1.399,1.4-2.278,1.698-2.5,1.698c-0.222,0-1.101-0.299-2.5-1.698 l-76.8-76.8c-2.057-2.057-2.057-2.944,0-5l25.6-25.6c0.905-0.905,1.86-1.101,2.5-1.101s1.587,0.196,2.5,1.101l76.8,76.8 c1.587,1.596,1.869,2.449,1.903,2.449C243.302,349.929,243.021,350.773,241.434,352.369z"/> <path d="M426.667,42.669C403.14,42.669,384,61.809,384,85.335c0,8.687,2.637,16.742,7.108,23.492l-9.054,9.045 c-3.328,3.337-3.328,8.738,0,12.075c1.672,1.664,3.857,2.492,6.033,2.492c2.185,0,4.369-0.828,6.033-2.492l9.054-9.054 c6.741,4.471,14.805,7.108,23.492,7.108c23.526,0,42.667-19.14,42.667-42.667C469.333,61.809,450.193,42.669,426.667,42.669z M426.667,110.935c-14.114,0-25.6-11.486-25.6-25.6s11.486-25.6,25.6-25.6s25.6,11.486,25.6,25.6 S440.781,110.935,426.667,110.935z"/> <path d="M509.5,2.502c-3.336-3.336-8.73-3.336-12.066,0L463.3,36.636c-3.337,3.337-3.337,8.73,0,12.066 c1.664,1.664,3.849,2.5,6.033,2.5c2.185,0,4.369-0.836,6.033-2.5L509.5,14.569C512.836,11.232,512.836,5.839,509.5,2.502z"/> <path d="M236.433,207.302c-3.337-3.337-8.73-3.337-12.066,0s-3.337,8.73,0,12.066l28.1,28.1l-2.5,2.5 c-3.336,3.337-3.336,8.73,0,12.066c1.664,1.664,3.849,2.5,6.033,2.5c2.185,0,4.369-0.836,6.033-2.5l2.5-2.5l28.1,28.1 c1.664,1.664,3.849,2.5,6.033,2.5c2.185,0,4.369-0.836,6.033-2.5c3.336-3.337,3.336-8.73,0-12.066L236.433,207.302z"/> <path d="M304.7,130.502c-3.934-3.934-9.105-6.101-14.566-6.101c-5.461,0-10.633,2.167-14.566,6.101l-25.6,25.6 c-8.713,8.713-8.713,20.42,0,29.133l32.367,32.367l-6.767,6.767c-3.337,3.337-3.337,8.73,0,12.066 c1.664,1.664,3.849,2.5,6.033,2.5c2.185,0,4.369-0.836,6.033-2.5l6.767-6.767l32.367,32.367 c5.53,5.538,10.974,6.699,14.566,6.699c3.593,0,9.037-1.161,14.566-6.699l25.6-25.6c9.259-9.259,9.259-19.883,0-29.133 L304.7,130.502z M369.434,224.369l-25.6,25.6c-1.391,1.399-2.278,1.698-2.5,1.698c-0.222,0-1.109-0.299-2.5-1.698l-76.8-76.8 c-2.057-2.057-2.057-2.944,0-5l25.6-25.6c0.904-0.905,1.86-1.101,2.5-1.101s1.587,0.196,2.5,1.101l76.8,76.8 c1.587,1.596,1.869,2.449,1.903,2.449C371.302,221.929,371.021,222.773,369.434,224.369z"/> <path d="M338.833,104.902c-3.336-3.337-8.73-3.337-12.066,0c-3.337,3.337-3.337,8.73,0,12.066l28.1,28.1l-2.5,2.5 c-3.337,3.337-3.337,8.73,0,12.066c1.664,1.664,3.849,2.5,6.033,2.5c2.185,0,4.369-0.836,6.033-2.5l2.5-2.5l28.1,28.1 c1.664,1.664,3.849,2.5,6.033,2.5c2.185,0,4.369-0.836,6.033-2.5c3.337-3.337,3.337-8.73,0-12.066L338.833,104.902z"/> </g> </g> </g> </g>
</svg>